<svg width="18" height="23" viewBox="0 0 18 23" fill="none" xmlns="http://www.w3.org/2000/svg">
<path d="M12.2419 3.59006C11.4567 4.53063 10.2003 5.27249 8.94396 5.16651C8.78692 3.89475 9.402 2.54351 10.1218 1.70892C10.907 0.741858 12.2811 0.0529898 13.3935 0C13.5244 1.32475 13.014 2.623 12.2419 3.59006Z" fill="black"/>
<path d="M13.3803 5.41814C11.5612 5.31216 10.0039 6.46469 9.14012 6.46469C8.26329 6.46469 6.94151 5.47113 5.50194 5.49762C3.6305 5.52412 1.88994 6.59716 0.934586 8.30608C-1.02846 11.7239 0.424194 16.7845 2.32181 19.5664C3.25098 20.9442 4.36337 22.4544 5.82911 22.4014C7.21633 22.3484 7.76599 21.4873 9.44112 21.4873C11.1293 21.4873 11.6136 22.4014 13.0793 22.3749C14.5974 22.3484 15.5527 20.9971 16.4819 19.6194C17.542 18.0562 17.9738 16.5328 18 16.4533C17.9738 16.4268 15.0685 15.3007 15.0423 11.9094C15.0162 9.07444 17.3326 7.7232 17.4373 7.64371C16.1286 5.68309 14.087 5.47113 13.3803 5.41814Z" fill="black"/>
</svg>
