<svg width="177" height="177" viewBox="0 0 177 177" fill="none" xmlns="http://www.w3.org/2000/svg">
<path d="M42.3127 21.8887L50.372 14.8368C50.4791 14.7431 50.6166 14.6914 50.7589 14.6914H149.631C149.773 14.6914 149.911 14.7431 150.018 14.8368L158.077 21.8887C158.486 22.246 158.233 22.9186 157.69 22.9186H42.6997C42.1571 22.9186 41.9043 22.246 42.3127 21.8887Z" fill="#226BF7"/>
<path d="M39.9604 25.8568H58.7653V32.321C58.7653 35.242 56.3974 37.6099 53.4764 37.6099H45.2492C42.3283 37.6099 39.9604 35.242 39.9604 32.321V25.8568Z" fill="#226BF7"/>
<path d="M59.9406 25.8568H78.7455V32.321C78.7455 35.242 76.3776 37.6099 73.4567 37.6099H65.2295C62.3085 37.6099 59.9406 35.242 59.9406 32.321V25.8568Z" fill="white"/>
<path d="M79.9209 25.8568H98.7258V32.321C98.7258 35.242 96.3579 37.6099 93.4369 37.6099H85.2098C82.2888 37.6099 79.9209 35.242 79.9209 32.321V25.8568Z" fill="#226BF7"/>
<path d="M99.9011 25.8568H118.706V32.321C118.706 35.242 116.338 37.6099 113.417 37.6099H105.19C102.269 37.6099 99.9011 35.242 99.9011 32.321V25.8568Z" fill="white"/>
<path d="M119.881 25.8568H138.686V32.321C138.686 35.242 136.318 37.6099 133.397 37.6099H125.17C122.249 37.6099 119.881 35.242 119.881 32.321V25.8568Z" fill="#226BF7"/>
<path d="M139.862 25.8568H158.667V32.321C158.667 35.242 156.299 37.6099 153.378 37.6099H145.15C142.229 37.6099 139.862 35.242 139.862 32.321V25.8568Z" fill="white"/>
<rect x="49.3628" y="40.5482" width="4.70123" height="41.1358" rx="1.17531" fill="white"/>
<rect x="146.326" y="40.5482" width="4.70123" height="41.1358" rx="1.17531" fill="white"/>
<path d="M18.5752 76.3951H12.3406C11.0424 76.3951 9.98998 77.4475 9.98998 78.7458V79.9211C9.98998 81.2193 11.0424 82.2717 12.3406 82.2717H17.0747C17.796 82.2717 18.4774 82.6029 18.923 83.17L23.9755 89.6005C24.4211 90.1677 25.1025 90.4988 25.8238 90.4988H32.3208C33.6191 90.4988 34.6715 91.5512 34.6715 92.8495V94.6124C34.6715 95.9106 35.7239 96.963 37.0221 96.963H163.368C164.666 96.963 165.718 95.9106 165.718 94.6124V87.2618C165.718 85.9655 164.669 84.9139 163.373 84.9112L27.5524 84.6246C26.8507 84.6232 26.1864 84.3083 25.741 83.7661L20.3915 77.2537C19.9451 76.7102 19.2786 76.3951 18.5752 76.3951Z" fill="white"/>
<rect x="62.8789" y="62.879" width="37.0222" height="26.4444" rx="3.52593" fill="white"/>
<rect x="108.716" y="75.2198" width="31.1457" height="15.279" rx="3.52593" fill="white"/>
<path d="M39.9604 102.84C39.9604 101.217 41.2759 99.9012 42.8986 99.9012H157.491C159.114 99.9012 160.429 101.217 160.429 102.84V133.985C160.429 137.231 157.798 139.862 154.553 139.862H45.8369C42.5914 139.862 39.9604 137.231 39.9604 133.985V102.84Z" fill="#226BF7"/>
<circle cx="70.5184" cy="141.625" r="20.8617" fill="white" stroke="#1B1D23" stroke-width="1.76296"/>
<circle cx="70.5183" cy="141.625" r="14.1037" fill="#1B1D23"/>
<circle cx="135.454" cy="146.032" r="16.2599" fill="white" stroke="#1B1D23" stroke-width="1.37407"/>
<circle cx="135.454" cy="146.032" r="10.9926" fill="#1B1D23"/>
</svg>
