<svg width="45" height="45" viewBox="0 0 45 45" fill="none" xmlns="http://www.w3.org/2000/svg">
<path fill-rule="evenodd" clip-rule="evenodd" d="M25.8566 40.805L24.6724 42.8057C23.617 44.5888 20.9803 44.5888 19.9248 42.8057L18.7406 40.805C17.8221 39.2532 17.3629 38.4773 16.6252 38.0482C15.8875 37.6192 14.9587 37.6032 13.1012 37.5712C10.3589 37.5239 8.63902 37.3559 7.19661 36.7585C4.52034 35.6499 2.39406 33.5236 1.28551 30.8474C0.454102 28.8402 0.454102 26.2956 0.454102 21.2064V19.022C0.454102 11.8713 0.454102 8.29598 2.06361 5.66951C2.96421 4.19985 4.19985 2.96421 5.66951 2.06361C8.29598 0.454102 11.8713 0.454102 19.022 0.454102H25.5754C32.726 0.454102 36.3014 0.454102 38.9278 2.06361C40.3975 2.96421 41.6331 4.19985 42.5337 5.66951C44.1432 8.29598 44.1432 11.8713 44.1432 19.022V21.2064C44.1432 26.2956 44.1432 28.8402 43.3118 30.8474C42.2033 33.5236 40.077 35.6499 37.4007 36.7585C35.9583 37.3559 34.2384 37.5239 31.4961 37.5712C29.6385 37.6032 28.7098 37.6192 27.9721 38.0482C27.2344 38.4773 26.7751 39.2532 25.8566 40.805ZM13.5608 21.7526C12.656 21.7526 11.9225 22.4861 11.9225 23.3909C11.9225 24.2957 12.656 25.0292 13.5608 25.0292H25.5754C26.4802 25.0292 27.2137 24.2957 27.2137 23.3909C27.2137 22.4861 26.4802 21.7526 25.5754 21.7526H13.5608ZM11.9225 15.7453C11.9225 14.8405 12.656 14.107 13.5608 14.107H31.0365C31.9413 14.107 32.6748 14.8405 32.6748 15.7453C32.6748 16.6501 31.9413 17.3836 31.0365 17.3836H13.5608C12.656 17.3836 11.9225 16.6501 11.9225 15.7453Z" fill="#F4E9DC"/>
</svg>
