<svg width="30" height="30" viewBox="0 0 30 30" fill="none" xmlns="http://www.w3.org/2000/svg">
<rect x="0.600098" y="0.599609" width="28.8" height="28.8" rx="14.4" fill="#16263D"/>
<path fill-rule="evenodd" clip-rule="evenodd" d="M9.04454 20.9552L24.1318 5.86796C23.1829 4.91908 21.3852 5.51828 17.7899 6.71667L8.83193 9.70255C6.83338 10.3687 5.8341 10.7018 5.53078 11.4346C5.45949 11.6068 5.41639 11.7894 5.40313 11.9753C5.3467 12.7664 6.09152 13.5112 7.58115 15.0007L7.85247 15.272C8.09698 15.5165 8.21924 15.6388 8.31166 15.7749C8.49393 16.0433 8.59739 16.3573 8.61032 16.6815C8.61688 16.8459 8.59121 17.0169 8.53989 17.3588C8.35203 18.6104 8.2581 19.2362 8.36875 19.7178C8.47812 20.1937 8.71592 20.6189 9.04454 20.9552Z" fill="white"/>
<path d="M20.2779 21.2258L23.2832 12.2101C24.4817 8.61489 25.0809 6.8173 24.132 5.86841L9.04468 20.9557C9.3788 21.2976 9.80681 21.5477 10.2891 21.6657C10.7691 21.7831 11.3962 21.698 12.6504 21.5278L12.719 21.5185C13.0725 21.4705 13.2493 21.4465 13.419 21.4567C13.7272 21.4753 14.0248 21.5757 14.2812 21.7475C14.4225 21.8421 14.5486 21.9683 14.8009 22.2205L15.0421 22.4617C16.492 23.9115 17.2169 24.6365 17.986 24.5987C18.198 24.5883 18.4063 24.5391 18.6005 24.4536C19.3053 24.1435 19.6295 23.1709 20.2779 21.2258Z" fill="white"/>
</svg>
