<svg width="34" height="34" viewBox="0 0 34 34" fill="none" xmlns="http://www.w3.org/2000/svg">
<path d="M27.7777 27.7776H5.55551" stroke="#CFCFD7" stroke-width="2.5" stroke-linecap="round"/>
<path opacity="0.5" d="M25.5555 27.7778V15.5556" stroke="#CFCFD7" stroke-width="2.5" stroke-linecap="round"/>
<path opacity="0.5" d="M7.77798 27.7778V15.5556" stroke="#CFCFD7" stroke-width="2.5" stroke-linecap="round"/>
<path d="M21.6979 5.5556H11.6361C10.2996 5.5556 9.63136 5.5556 9.09436 5.88749C8.55735 6.21938 8.25851 6.81706 7.66083 8.01243L7.66083 8.01243L6.37393 11.2655C5.83345 12.6318 5.34238 14.4102 6.57852 15.2044C6.92452 15.4267 7.33621 15.5556 7.77803 15.5556C9.00533 15.5556 10.0003 14.5607 10.0003 13.3334C10.0003 14.5607 10.9952 15.5556 12.2225 15.5556C13.4498 15.5556 14.4447 14.5607 14.4447 13.3334C14.4447 14.5607 15.4396 15.5556 16.6669 15.5556C17.8942 15.5556 18.8891 14.5607 18.8891 13.3334C18.8891 14.5607 19.8841 15.5556 21.1114 15.5556C22.3387 15.5556 23.3336 14.5607 23.3336 13.3334C23.3336 14.5607 24.3285 15.5556 25.5558 15.5556C25.9976 15.5556 26.4094 15.4267 26.7554 15.2043C27.9915 14.4101 27.5005 12.6318 26.96 11.2655L25.6731 8.01243L25.6731 8.0124C25.0754 6.81705 24.7766 6.21937 24.2396 5.88749C23.7026 5.5556 23.0343 5.5556 21.6979 5.5556Z" stroke="#CFCFD7" stroke-width="2.5" stroke-linejoin="round"/>
<path opacity="0.5" d="M13.8888 27.2221V23.8888C13.8888 22.8503 13.8888 22.3311 14.1121 21.9444C14.2584 21.691 14.4688 21.4806 14.7222 21.3343C15.1089 21.111 15.6281 21.111 16.6666 21.111C17.7051 21.111 18.2243 21.111 18.611 21.3343C18.8644 21.4806 19.0748 21.691 19.2211 21.9444C19.4444 22.3311 19.4444 22.8503 19.4444 23.8888V27.2221" stroke="#CFCFD7" stroke-width="2.5" stroke-linecap="round"/>
</svg>
